<?xml version="1.0" encoding="utf-8"?>
<!-- Generator: Adobe Illustrator 27.5.0, SVG Export Plug-In . SVG Version: 6.00 Build 0)  -->
<svg version="1.1" id="레이어_2" xmlns="http://www.w3.org/2000/svg" xmlns:xlink="http://www.w3.org/1999/xlink" x="0px"
	 y="0px" viewBox="0 0 24 48" style="enable-background:new 0 0 24 48;" xml:space="preserve">
<style type="text/css">
	.st0{fill:#000000;}
</style>
  <path class="st0"  d="M87.7-860l-.5-3.15a6.7,6.7,0,0,1-1-.475,6.871,6.871,0,0,1-.925-.625l-2.95,1.35L80-867l2.7-1.975a2.973,2.973,0,0,1-.062-.513q-.012-.287-.012-.513t.012-.513a2.973,2.973,0,0,1,.063-.513L80-873l2.325-4.1,2.95,1.35a6.871,6.871,0,0,1,.925-.625,5.175,5.175,0,0,1,1-.45L87.7-880h4.6l.5,3.15a8.1,8.1,0,0,1,1.012.462,4.3,4.3,0,0,1,.912.638l2.95-1.35L100-873l-2.7,1.925a3.523,3.523,0,0,1,.063.538q.012.287.012.537t-.012.525a3.481,3.481,0,0,1-.062.525L100-867l-2.325,4.1-2.95-1.35a8.3,8.3,0,0,1-.912.638,4.356,4.356,0,0,1-1.012.462L92.3-860Zm2.3-6.75a3.133,3.133,0,0,0,2.3-.95,3.133,3.133,0,0,0,.95-2.3,3.133,3.133,0,0,0-.95-2.3,3.133,3.133,0,0,0-2.3-.95,3.133,3.133,0,0,0-2.3.95,3.133,3.133,0,0,0-.95,2.3,3.133,3.133,0,0,0,.95,2.3A3.133,3.133,0,0,0,90-866.75Zm0-1.5a1.686,1.686,0,0,1-1.238-.513A1.686,1.686,0,0,1,88.25-870a1.686,1.686,0,0,1,.512-1.237A1.686,1.686,0,0,1,90-871.75a1.686,1.686,0,0,1,1.238.513A1.686,1.686,0,0,1,91.75-870a1.686,1.686,0,0,1-.512,1.237A1.686,1.686,0,0,1,90-868.25ZM90-870Zm-1.1,8.5h2.2l.35-2.8a5.9,5.9,0,0,0,1.563-.625,6.407,6.407,0,0,0,1.338-1.025L97-864.8l1-1.8-2.35-1.725q.1-.425.162-.837a5.583,5.583,0,0,0,.063-.838,6.953,6.953,0,0,0-.05-.838,5.172,5.172,0,0,0-.175-.837L98-873.4l-1-1.8-2.65,1.15a5.573,5.573,0,0,0-1.3-1.088,4.218,4.218,0,0,0-1.6-.562l-.35-2.8H88.9l-.35,2.8a5.3,5.3,0,0,0-1.588.6,5.513,5.513,0,0,0-1.312,1.05L83-875.2l-1,1.8,2.35,1.725q-.1.425-.162.837a5.584,5.584,0,0,0-.062.838,5.584,5.584,0,0,0,.063.838q.062.412.162.837L82-866.6l1,1.8,2.65-1.15a6.407,6.407,0,0,0,1.338,1.025,5.9,5.9,0,0,0,1.563.625Z" transform="translate(-80 880)"/>
</svg>
