<svg xmlns="http://www.w3.org/2000/svg" width="120" height="150" viewBox="0 0 120 150">
  <g id="tutorial_place" transform="translate(-8.242 -4.261)">
    <g id="그룹_9" data-name="그룹 9" transform="translate(8.242 4.261)">
      <path id="패스_11" data-name="패스 11" d="M43.075-39.492C25.959-32.037,11.506-11.534,8.843,8.6,5.42,31.334,16.45,52.582,46.117,83.149l22.441,23.112,22.06-22.739C135.88,36.553,140.444-4.824,103.55-32.409,87.956-43.965,60.571-47.32,43.075-39.492Zm50.967,13.42C107.354-18.244,117.623.767,117.623,16.8c0,13.42-11.791,34.295-31.949,55.915L68.178,91.35l-17.5-18.638C21.014,41.772,12.647,15.305,24.438-7.807,37.369-31.664,70.08-40.237,94.042-26.072Z" transform="translate(-8.242 43.739)" fill="#5a8fff"/>
    </g>
    <path id="패스_12" data-name="패스 12" d="M59.8,88.8,55.519,85a210.045,210.045,0,0,1-19.274-16.63A119,119,0,0,1,23.931,56.013a36.192,36.192,0,0,1-6.425-9.978A24.841,24.841,0,0,1,15.9,37.007a18.082,18.082,0,0,1,6.96-14.73,25.533,25.533,0,0,1,28.376-3.326,22.464,22.464,0,0,1,9.1,7.6c3.212-3.326,6.425-6.177,9.637-7.6a27.477,27.477,0,0,1,11.243-2.376c6.425,0,12.314,1.9,16.6,6.177a19.763,19.763,0,0,1,6.96,14.73,26.777,26.777,0,0,1-1.606,9.028,36.192,36.192,0,0,1-6.425,9.978A119,119,0,0,1,84.431,68.842c-5.354,4.752-11.779,9.978-19.274,16.63Zm0-7.6c7.5-6.177,13.385-11.4,18.2-15.68s8.566-8.078,11.779-11.4a28.974,28.974,0,0,0,5.889-8.553,19.4,19.4,0,0,0,1.606-7.6c0-4.276-1.606-8.078-4.819-10.453a19.31,19.31,0,0,0-11.779-4.276,17.715,17.715,0,0,0-10.708,3.326,22.4,22.4,0,0,0-8.031,8.553H56.59c-2.142-3.8-4.283-6.652-7.5-8.553a21.6,21.6,0,0,0-10.708-3.326c-4.819,0-9.1,1.425-11.779,4.276a11.7,11.7,0,0,0-4.819,9.978,19.4,19.4,0,0,0,1.606,7.6,46.41,46.41,0,0,0,5.889,9.028" transform="translate(8.285 24.858)" fill="#5a8fff"/>
  </g>
</svg>
