<?xml version="1.0" encoding="utf-8"?>
<!-- Generator: Adobe Illustrator 27.5.0, SVG Export Plug-In . SVG Version: 6.00 Build 0)  -->
<svg version="1.1" id="레이어_1" xmlns="http://www.w3.org/2000/svg" xmlns:xlink="http://www.w3.org/1999/xlink" x="0px"
	 y="0px" viewBox="0 0 48 48" style="enable-background:new 0 0 48 48;" xml:space="preserve">
<style type="text/css">
	.st0{fill:#5A8FFF;}
</style>
<path class="st0" d="M17.2,29.1h19.5l-6.3-8.5l-5.1,6.8L21.9,23L17.2,29.1z M13,38c-0.8,0-1.5-0.3-2.1-0.9C10.3,36.5,10,35.8,10,35
	V7c0-0.8,0.3-1.5,0.9-2.1C11.5,4.3,12.2,4,13,4h28c0.8,0,1.5,0.3,2.1,0.9C43.7,5.5,44,6.2,44,7v28c0,0.8-0.3,1.5-0.9,2.1
	C42.5,37.7,41.8,38,41,38H13z M13,35h28V7H13V35z M7,44c-0.8,0-1.5-0.3-2.1-0.9C4.3,42.5,4,41.8,4,41V10h3v31h31v3H7z M13,7v28V7z"
	/>
</svg>
