<svg xmlns="http://www.w3.org/2000/svg" width="14" height="13.228" viewBox="0 0 14 13.228">
  <path id="bank_book" d="M129.774-832.21a1.126,1.126,0,0,0,.818-.358,1.136,1.136,0,0,0,.358-.827,1.106,1.106,0,0,0-.358-.818,1.14,1.14,0,0,0-.818-.349,1.14,1.14,0,0,0-.818.349,1.106,1.106,0,0,0-.358.818,1.136,1.136,0,0,0,.358.827A1.126,1.126,0,0,0,129.774-832.21Zm-8.672,3.362v0Zm0,2.076a1.068,1.068,0,0,1-.762-.331,1.044,1.044,0,0,1-.34-.772V-838.9a1.054,1.054,0,0,1,.34-.762,1.054,1.054,0,0,1,.762-.34h11.024a1.044,1.044,0,0,1,.772.34,1.067,1.067,0,0,1,.331.762v2.462h-1.1V-838.9H121.1v11.024h11.024v-2.444h1.1v2.444a1.058,1.058,0,0,1-.331.772,1.058,1.058,0,0,1-.772.331Zm6.577-3.178a1.341,1.341,0,0,1-.992-.367,1.316,1.316,0,0,1-.367-.974v-4.17a1.31,1.31,0,0,1,.367-.983,1.36,1.36,0,0,1,.992-.358h4.961a1.36,1.36,0,0,1,.992.358,1.31,1.31,0,0,1,.367.983v4.17a1.316,1.316,0,0,1-.367.974,1.341,1.341,0,0,1-.992.367Zm5.218-1.1V-835.7h-5.475v4.648Z" transform="translate(-120 840)" fill="#bbb"/>
</svg>
