<svg xmlns="http://www.w3.org/2000/svg" width="18" height="20" viewBox="0 0 18 20">
  <path id="calendar-lightgray" d="M121.5-860a1.439,1.439,0,0,1-1.05-.45,1.439,1.439,0,0,1-.45-1.05V-877a1.439,1.439,0,0,1,.45-1.05,1.439,1.439,0,0,1,1.05-.45h1.625V-880h1.625v1.5h8.5V-880h1.625v1.5H136.5a1.439,1.439,0,0,1,1.05.45A1.439,1.439,0,0,1,138-877v15.5a1.439,1.439,0,0,1-.45,1.05,1.439,1.439,0,0,1-1.05.45Zm0-1.5h15v-10.75h-15Zm0-12.25h15V-877h-15Zm0,0v0ZM129-868a.968.968,0,0,1-.712-.287A.967.967,0,0,1,128-869a.968.968,0,0,1,.288-.712A.967.967,0,0,1,129-870a.967.967,0,0,1,.712.288A.968.968,0,0,1,130-869a.967.967,0,0,1-.288.713A.968.968,0,0,1,129-868Zm-4,0a.968.968,0,0,1-.713-.287A.968.968,0,0,1,124-869a.968.968,0,0,1,.287-.712A.967.967,0,0,1,125-870a.967.967,0,0,1,.713.288A.968.968,0,0,1,126-869a.968.968,0,0,1-.287.713A.968.968,0,0,1,125-868Zm8,0a.968.968,0,0,1-.712-.287A.967.967,0,0,1,132-869a.968.968,0,0,1,.288-.712A.967.967,0,0,1,133-870a.968.968,0,0,1,.713.288A.968.968,0,0,1,134-869a.968.968,0,0,1-.287.713A.968.968,0,0,1,133-868Zm-4,4a.968.968,0,0,1-.712-.288A.967.967,0,0,1,128-865a.967.967,0,0,1,.288-.712A.967.967,0,0,1,129-866a.967.967,0,0,1,.712.288A.967.967,0,0,1,130-865a.967.967,0,0,1-.288.712A.967.967,0,0,1,129-864Zm-4,0a.968.968,0,0,1-.713-.288A.967.967,0,0,1,124-865a.967.967,0,0,1,.287-.712A.967.967,0,0,1,125-866a.967.967,0,0,1,.713.288A.967.967,0,0,1,126-865a.967.967,0,0,1-.287.712A.968.968,0,0,1,125-864Zm8,0a.967.967,0,0,1-.712-.288A.967.967,0,0,1,132-865a.967.967,0,0,1,.288-.712A.967.967,0,0,1,133-866a.968.968,0,0,1,.713.288A.968.968,0,0,1,134-865a.968.968,0,0,1-.287.712A.968.968,0,0,1,133-864Z" transform="translate(-120 880)" fill="#e0e7e6"/>
</svg>
