<?xml version="1.0" encoding="utf-8"?>
<!-- Generator: Adobe Illustrator 27.5.0, SVG Export Plug-In . SVG Version: 6.00 Build 0)  -->
<svg version="1.1" id="레이어_1" xmlns="http://www.w3.org/2000/svg" xmlns:xlink="http://www.w3.org/1999/xlink" x="0px"
	 y="0px" viewBox="0 0 48 48" style="enable-background:new 0 0 48 48;" xml:space="preserve">
<style type="text/css">
	.st0{fill:#5A8FFF;}
</style>
<path class="st0" d="M9,44c-0.8,0-1.5-0.3-2.1-0.9C6.3,42.5,6,41.8,6,41V10c0-0.8,0.3-1.5,0.9-2.1C7.5,7.3,8.2,7,9,7h3.2V4h3.2v3h17
	V4h3.2v3H39c0.8,0,1.5,0.3,2.1,0.9C41.7,8.5,42,9.2,42,10v31c0,0.8-0.3,1.5-0.9,2.1C40.5,43.7,39.8,44,39,44H9z M9,41h30V19.5H9V41z
	 M9,16.5h30V10H9V16.5z M9,16.5V10V16.5z M24,28c-0.6,0-1-0.2-1.4-0.6S22,26.6,22,26s0.2-1,0.6-1.4C23,24.2,23.4,24,24,24
	s1,0.2,1.4,0.6C25.8,25,26,25.4,26,26s-0.2,1-0.6,1.4S24.6,28,24,28z M16,28c-0.6,0-1-0.2-1.4-0.6C14.2,27,14,26.6,14,26
	s0.2-1,0.6-1.4C15,24.2,15.4,24,16,24c0.6,0,1,0.2,1.4,0.6C17.8,25,18,25.4,18,26s-0.2,1-0.6,1.4C17,27.8,16.6,28,16,28z M32,28
	c-0.6,0-1-0.2-1.4-0.6C30.2,27,30,26.6,30,26s0.2-1,0.6-1.4C31,24.2,31.4,24,32,24s1,0.2,1.4,0.6C33.8,25,34,25.4,34,26
	s-0.2,1-0.6,1.4C33,27.8,32.6,28,32,28z M24,36c-0.6,0-1-0.2-1.4-0.6C22.2,35,22,34.6,22,34s0.2-1,0.6-1.4C23,32.2,23.4,32,24,32
	s1,0.2,1.4,0.6C25.8,33,26,33.4,26,34s-0.2,1-0.6,1.4C25,35.8,24.6,36,24,36z M16,36c-0.6,0-1-0.2-1.4-0.6C14.2,35,14,34.6,14,34
	s0.2-1,0.6-1.4C15,32.2,15.4,32,16,32c0.6,0,1,0.2,1.4,0.6C17.8,33,18,33.4,18,34s-0.2,1-0.6,1.4C17,35.8,16.6,36,16,36z M32,36
	c-0.6,0-1-0.2-1.4-0.6C30.2,35,30,34.6,30,34s0.2-1,0.6-1.4C31,32.2,31.4,32,32,32s1,0.2,1.4,0.6C33.8,33,34,33.4,34,34
	s-0.2,1-0.6,1.4C33,35.8,32.6,36,32,36z"/>
</svg>
