<svg xmlns="http://www.w3.org/2000/svg" width="18" height="18" viewBox="0 0 18 18">
  <path id="clock" d="M92.308-866.658l1.013-1.013-3.577-3.6v-4.522h-1.35v5.063ZM89-862a8.709,8.709,0,0,1-3.487-.709,9.129,9.129,0,0,1-2.869-1.935,9.129,9.129,0,0,1-1.935-2.869A8.708,8.708,0,0,1,80-871a8.708,8.708,0,0,1,.709-3.488,9.129,9.129,0,0,1,1.935-2.869,9.127,9.127,0,0,1,2.869-1.935A8.708,8.708,0,0,1,89-880a8.708,8.708,0,0,1,3.487.709,9.127,9.127,0,0,1,2.869,1.935,9.129,9.129,0,0,1,1.935,2.869A8.708,8.708,0,0,1,98-871a8.709,8.709,0,0,1-.709,3.487,9.129,9.129,0,0,1-1.935,2.869,9.129,9.129,0,0,1-2.869,1.935A8.709,8.709,0,0,1,89-862ZM89-871Zm0,7.65a7.365,7.365,0,0,0,5.4-2.25,7.365,7.365,0,0,0,2.25-5.4,7.365,7.365,0,0,0-2.25-5.4,7.365,7.365,0,0,0-5.4-2.25,7.365,7.365,0,0,0-5.4,2.25,7.365,7.365,0,0,0-2.25,5.4,7.365,7.365,0,0,0,2.25,5.4A7.365,7.365,0,0,0,89-863.35Z" transform="translate(-80 880)"/>
</svg>
