<svg xmlns="http://www.w3.org/2000/svg" width="14" height="14" viewBox="0 0 14 14">
  <path id="history" d="M126.942-826a6.648,6.648,0,0,1-4.919-2.051A6.816,6.816,0,0,1,120-833.02h1.167a5.708,5.708,0,0,0,1.672,4.142,5.514,5.514,0,0,0,4.1,1.711,5.655,5.655,0,0,0,4.181-1.731,5.752,5.752,0,0,0,1.711-4.2,5.43,5.43,0,0,0-1.731-4.074,5.792,5.792,0,0,0-4.161-1.662,5.288,5.288,0,0,0-2.479.6,6.758,6.758,0,0,0-2.012,1.594h2.042v1.167h-4.064v-4.044h1.167v2.061a7.4,7.4,0,0,1,2.4-1.867,6.614,6.614,0,0,1,2.946-.681,6.947,6.947,0,0,1,2.742.544,7.184,7.184,0,0,1,2.246,1.487,6.983,6.983,0,0,1,1.517,2.207,6.7,6.7,0,0,1,.554,2.722,6.841,6.841,0,0,1-.554,2.742,7.038,7.038,0,0,1-1.517,2.236,7.238,7.238,0,0,1-2.246,1.507A6.842,6.842,0,0,1,126.942-826Zm2.489-3.831-2.994-2.956v-4.161H127.6v3.675l2.664,2.606Z" transform="translate(-120 840)" fill="#bbb"/>
</svg>
