<svg xmlns="http://www.w3.org/2000/svg" width="18" height="16.515" viewBox="0 0 18 16.515">
  <path id="love_active" d="M4,10.07A4.614,4.614,0,0,1,8.725,5.345a4.8,4.8,0,0,1,2.385.585A5.807,5.807,0,0,1,13,7.685a6.8,6.8,0,0,1,2.025-1.8,4.423,4.423,0,0,1,2.25-.585A4.614,4.614,0,0,1,22,10.025a6.406,6.406,0,0,1-.36,2.025,7.966,7.966,0,0,1-1.305,2.25,29.85,29.85,0,0,1-2.475,2.835c-1.035,1.08-2.34,2.295-3.915,3.78l-.945.9-.9-.855Q9.737,18.8,8.185,17.18A25.157,25.157,0,0,1,5.71,14.345,10.146,10.146,0,0,1,4.4,12.095,5.417,5.417,0,0,1,4,10.07Z" transform="translate(-4 -5.3)" fill="#ff6d70"/>
</svg>
