<svg xmlns="http://www.w3.org/2000/svg" width="25" height="20" viewBox="0 0 25 20">
  <path id="merge" d="M96.281-785h1.875v-2.813h2.812v-1.875H98.156V-792.5H96.281v2.813H93.469v1.875h2.813Zm-13.406,5a1.776,1.776,0,0,1-1.312-.578,1.817,1.817,0,0,1-.562-1.3v-16.25a1.817,1.817,0,0,1,.563-1.3A1.776,1.776,0,0,1,82.875-800h8.75l1.875,1.875h10.625a1.793,1.793,0,0,1,1.3.578,1.793,1.793,0,0,1,.578,1.3v14.375a1.793,1.793,0,0,1-.578,1.3,1.793,1.793,0,0,1-1.3.578Zm0-18.125v16.25h21.25V-796.25H92.719l-1.875-1.875Zm0,0v0Z" transform="translate(-81 800)"/>
</svg>
