<svg xmlns="http://www.w3.org/2000/svg" width="4" height="18" viewBox="0 0 4 18">
  <path id="more_vert" d="M21.4,14.5a1.7,1.7,0,0,1,.583-1.348,2.085,2.085,0,0,1,2.833,0,1.849,1.849,0,0,1,0,2.7,2.085,2.085,0,0,1-2.833,0A1.7,1.7,0,0,1,21.4,14.5Zm0,7.216a1.7,1.7,0,0,1,.583-1.348,2.085,2.085,0,0,1,2.833,0,1.849,1.849,0,0,1,0,2.7,2.085,2.085,0,0,1-2.833,0A1.7,1.7,0,0,1,21.4,21.719Zm0,6.978a1.7,1.7,0,0,1,.583-1.348,2.085,2.085,0,0,1,2.833,0,1.849,1.849,0,0,1,0,2.7,2.085,2.085,0,0,1-2.833,0A1.7,1.7,0,0,1,21.4,28.7Z" transform="translate(-21.4 -12.6)" fill="#222"/>
</svg>
