<?xml version="1.0" encoding="utf-8"?>
<!-- Generator: Adobe Illustrator 27.7.0, SVG Export Plug-In . SVG Version: 6.00 Build 0)  -->
<svg version="1.1" id="레이어_1" xmlns="http://www.w3.org/2000/svg" xmlns:xlink="http://www.w3.org/1999/xlink" x="0px"
	 y="0px" viewBox="0 0 48 48" style="enable-background:new 0 0 48 48;" xml:space="preserve">
<style type="text/css">
	.st0{fill:#5A8FFF;}
</style>
<path class="st0" d="M8.5,28.1c-1.2,0-2.1-0.4-2.9-1.2c-0.8-0.8-1.2-1.7-1.2-2.9c0-1.2,0.4-2.1,1.2-2.9c0.8-0.8,1.7-1.2,2.9-1.2
	s2.1,0.4,2.9,1.2c0.8,0.8,1.2,1.7,1.2,2.9c0,1.2-0.4,2.1-1.2,2.9C10.6,27.8,9.8,28.1,8.5,28.1z M24.3,28.1c-1.2,0-2.1-0.4-2.9-1.2
	c-0.8-0.8-1.2-1.7-1.2-2.9c0-1.2,0.4-2.1,1.2-2.9c0.8-0.8,1.7-1.2,2.9-1.2s2.1,0.4,2.9,1.2c0.8,0.8,1.2,1.7,1.2,2.9
	c0,1.2-0.4,2.1-1.2,2.9C26.4,27.8,25.5,28.1,24.3,28.1z M39.5,28.1c-1.2,0-2.1-0.4-2.9-1.2c-0.8-0.8-1.2-1.7-1.2-2.9
	c0-1.2,0.4-2.1,1.2-2.9c0.8-0.8,1.7-1.2,2.9-1.2s2.1,0.4,2.9,1.2c0.8,0.8,1.2,1.7,1.2,2.9c0,1.2-0.4,2.1-1.2,2.9
	C41.5,27.8,40.6,28.1,39.5,28.1z"/>
</svg>
