<svg xmlns="http://www.w3.org/2000/svg" width="18" height="18" viewBox="0 0 18 18">
  <path id="phone" d="M17.54,14.019a2.205,2.205,0,0,0-1.328-1.044,2.8,2.8,0,0,0-1.8.065l-1.64.653a8.159,8.159,0,0,1-1.8-2.154,7.65,7.65,0,0,1-.859-2.545l1.64-.653a1.827,1.827,0,0,0,1.093-2.61L11.527,3.381A2.205,2.205,0,0,0,10.2,2.337,2.8,2.8,0,0,0,8.4,2.4L5.826,3.447A1.844,1.844,0,0,0,4.5,5.274a16.937,16.937,0,0,0,2.265,7.9A21.455,21.455,0,0,0,12.542,19.7a2.767,2.767,0,0,0,1.562.522,2.8,2.8,0,0,0,1.015-.2l2.343-.914a2.315,2.315,0,0,0,1.406-1.175,1.833,1.833,0,0,0,0-1.566L17.54,14.019Zm-.156,3.394a1.124,1.124,0,0,1-.625.522l-2.343.914a.815.815,0,0,1-.859-.131,19.315,19.315,0,0,1-5.389-6.069A15.855,15.855,0,0,1,6.06,5.274a.582.582,0,0,1,.469-.587L9.184,3.642A.543.543,0,0,1,9.5,3.577a.767.767,0,0,1,.7.392l1.328,2.349a.611.611,0,0,1-.39.848L9.5,7.819a1.245,1.245,0,0,0-.859,1.305,10.438,10.438,0,0,0,.937,3,10.031,10.031,0,0,0,2.109,2.545,1.768,1.768,0,0,0,1.8.261l1.64-.653a1.013,1.013,0,0,1,.625,0,.778.778,0,0,1,.469.326l1.328,2.349c-.078.131-.078.326-.156.457Zm1.484-9.659a3.388,3.388,0,0,1,.312,3,.777.777,0,0,1-.781.457h-.234a.734.734,0,0,1-.547-.848,2.181,2.181,0,0,0-.234-1.958A3.334,3.334,0,0,0,15.51,7.1a.734.734,0,0,1-.547-.848c.078-.392.547-.522,1.015-.457a4.512,4.512,0,0,1,2.89,1.958Zm3.28,3.72a.777.777,0,0,1-.781.457h-.234a.734.734,0,0,1-.547-.848A4.523,4.523,0,0,0,20.117,7.1a6.033,6.033,0,0,0-3.671-2.545.734.734,0,0,1-.547-.848c.078-.392.547-.522,1.015-.457,4.217,1.109,6.482,4.764,5.233,8.223Z" transform="translate(-4.491 -2.219)"/>
</svg>
