<svg xmlns="http://www.w3.org/2000/svg" width="14" height="12.6" viewBox="0 0 14 12.6">
  <path id="photo" d="M86.991-829.955a2.887,2.887,0,0,0,2.126-.857,2.887,2.887,0,0,0,.857-2.126,2.859,2.859,0,0,0-.857-2.118,2.9,2.9,0,0,0-2.126-.849,2.873,2.873,0,0,0-2.118.849,2.874,2.874,0,0,0-.849,2.118,2.9,2.9,0,0,0,.849,2.126A2.858,2.858,0,0,0,86.991-829.955Zm0-1.05a1.846,1.846,0,0,1-1.374-.551,1.891,1.891,0,0,1-.542-1.382,1.862,1.862,0,0,1,.542-1.374,1.862,1.862,0,0,1,1.374-.542,1.891,1.891,0,0,1,1.382.542,1.846,1.846,0,0,1,.551,1.374,1.875,1.875,0,0,1-.551,1.382A1.875,1.875,0,0,1,86.991-831Zm-5.941,3.6a1.007,1.007,0,0,1-.735-.315A1.007,1.007,0,0,1,80-828.45v-8.978a1.017,1.017,0,0,1,.315-.726.994.994,0,0,1,.735-.324h2.573L84.9-840h4.2l1.278,1.522H92.95a1,1,0,0,1,.726.324,1,1,0,0,1,.324.726v8.978a.994.994,0,0,1-.324.735,1.017,1.017,0,0,1-.726.315Zm11.9-1.05v-8.978H89.888L88.61-838.95H85.39l-1.277,1.522H81.05v8.978ZM87-832.93Z" transform="translate(-80 840)" fill="#fff"/>
</svg>
