<svg xmlns="http://www.w3.org/2000/svg" width="20" height="20" viewBox="0 0 20 20">
  <path id="pick_image" d="M121.667-820a1.6,1.6,0,0,1-1.167-.5,1.6,1.6,0,0,1-.5-1.167v-16.667a1.6,1.6,0,0,1,.5-1.167,1.6,1.6,0,0,1,1.167-.5h16.667a1.6,1.6,0,0,1,1.167.5,1.6,1.6,0,0,1,.5,1.167v16.667a1.6,1.6,0,0,1-.5,1.167,1.6,1.6,0,0,1-1.167.5Zm0-1.667h16.667v-16.667H121.667Zm1.556-2.694h13.583l-4.083-5.444-3.667,4.75-2.583-3.528Zm-1.556,2.694v0Z" transform="translate(-120 840)" fill="rgba(255,255,255,0.8)"/>
</svg>
