<svg xmlns="http://www.w3.org/2000/svg" width="20" height="20" viewBox="0 0 20 20">
  <path id="share" d="M136.838-860a3.22,3.22,0,0,1-2.24-.834,2.629,2.629,0,0,1-.922-2.024,2.464,2.464,0,0,1,.042-.408,1.912,1.912,0,0,1,.125-.434l-8.4-4.4a3.168,3.168,0,0,1-1.026.688,3.131,3.131,0,0,1-1.248.262,3.227,3.227,0,0,1-2.24-.831A2.619,2.619,0,0,1,120-870a2.618,2.618,0,0,1,.922-2.019,3.227,3.227,0,0,1,2.24-.831,3.358,3.358,0,0,1,1.221.225,3.388,3.388,0,0,1,1.054.65l8.4-4.35a1.645,1.645,0,0,1-.125-.4,2.307,2.307,0,0,1-.042-.427,2.619,2.619,0,0,1,.922-2.019,3.227,3.227,0,0,1,2.24-.831,3.227,3.227,0,0,1,2.24.831A2.619,2.619,0,0,1,140-877.15a2.619,2.619,0,0,1-.922,2.019,3.227,3.227,0,0,1-2.24.831,4.083,4.083,0,0,1-1.239-.187,2.4,2.4,0,0,1-1.008-.613l-8.4,4.2a4.21,4.21,0,0,1,.1.463,2.912,2.912,0,0,1,.042.443,1.788,1.788,0,0,1-.042.375q-.042.194-.1.394l8.4,4.3a3.359,3.359,0,0,1,.971-.563,3.555,3.555,0,0,1,1.276-.212,3.227,3.227,0,0,1,2.24.831A2.618,2.618,0,0,1,140-862.85a2.619,2.619,0,0,1-.922,2.019A3.227,3.227,0,0,1,136.838-860Zm0-15.8a1.533,1.533,0,0,0,1.067-.388,1.245,1.245,0,0,0,.43-.963,1.241,1.241,0,0,0-.431-.962,1.538,1.538,0,0,0-1.068-.388,1.533,1.533,0,0,0-1.067.388,1.245,1.245,0,0,0-.43.962,1.241,1.241,0,0,0,.431.962A1.539,1.539,0,0,0,136.839-875.8Zm-13.675,7.15a1.533,1.533,0,0,0,1.067-.388,1.245,1.245,0,0,0,.43-.963,1.241,1.241,0,0,0-.431-.962,1.538,1.538,0,0,0-1.068-.388,1.532,1.532,0,0,0-1.067.388,1.245,1.245,0,0,0-.43.962,1.241,1.241,0,0,0,.431.962A1.539,1.539,0,0,0,123.163-868.65Zm13.675,7.15a1.533,1.533,0,0,0,1.067-.388,1.245,1.245,0,0,0,.43-.963,1.241,1.241,0,0,0-.431-.962,1.538,1.538,0,0,0-1.068-.388,1.533,1.533,0,0,0-1.067.388,1.245,1.245,0,0,0-.43.962,1.241,1.241,0,0,0,.431.962A1.538,1.538,0,0,0,136.839-861.5ZM136.838-877.15ZM123.162-870ZM136.838-862.85Z" transform="translate(-120 880)" fill="#222"/>
</svg>
