<svg xmlns="http://www.w3.org/2000/svg" width="30" height="27.938" viewBox="0 0 25 22.938">
  <path id="love" d="M4,11.925a6.408,6.408,0,0,1,6.563-6.563,6.671,6.671,0,0,1,3.313.813A8.065,8.065,0,0,1,16.5,8.613a9.441,9.441,0,0,1,2.813-2.5A6.143,6.143,0,0,1,22.438,5.3,6.408,6.408,0,0,1,29,11.863a8.9,8.9,0,0,1-.5,2.812A11.064,11.064,0,0,1,26.688,17.8a41.458,41.458,0,0,1-3.437,3.938c-1.438,1.5-3.25,3.188-5.438,5.25L16.5,28.238,15.25,27.05q-3.281-3-5.437-5.25a34.941,34.941,0,0,1-3.437-3.938,14.092,14.092,0,0,1-1.813-3.125A7.524,7.524,0,0,1,4,11.925Z" transform="translate(-4 -5.3)" fill="#ff6d70"/>
</svg>
