<svg xmlns="http://www.w3.org/2000/svg" width="155" height="151" viewBox="0 0 155 151">
  <path id="tutorial_love" d="M113.556,81.978c-5.891-5.156-11.413-10.312-16.568-15.1A122.267,122.267,0,0,1,83.366,52.515a68.316,68.316,0,0,1-9.2-13.627c-2.209-4.42-3.682-8.471-3.682-12.522a20.853,20.853,0,0,1,6.627-15.837A21.647,21.647,0,0,1,93.306,3.9a24.792,24.792,0,0,1,11.045,2.946,28.867,28.867,0,0,1,9.572,8.1c2.945-3.315,5.891-6.261,9.572-8.1A20.774,20.774,0,0,1,134.542,3.9a22.229,22.229,0,0,1,16.2,6.629,23.311,23.311,0,0,1,5.891,15.837,24.328,24.328,0,0,1-3.682,12.522c-2.209,4.42-5.523,8.839-9.2,13.627a163.008,163.008,0,0,1-13.622,14.363C124.6,71.666,119.447,76.822,113.556,81.978Zm0-15.468c8.1-7.366,15.463-14.732,22.09-21.729,6.627-7.366,9.941-13.259,9.941-18.415a10.285,10.285,0,0,0-3.314-8.1,10.823,10.823,0,0,0-8.1-3.315,13,13,0,0,0-6.259,1.473c-2.209,1.1-4.05,2.946-6.259,5.524l-8.1,10.312-8.1-10.312c-2.209-2.578-4.05-4.42-6.259-5.524a12.1,12.1,0,0,0-6.259-1.473,10.279,10.279,0,0,0-8.1,3.315,10.831,10.831,0,0,0-3.314,8.1c0,5.156,3.314,11.049,9.941,18.415S105.456,59.144,113.556,66.51ZM98.829,154.9,41.394,138.327v10.312H2V76.454H59.066l47.126,17.678a19.624,19.624,0,0,1,8.468,5.893c2.209,2.946,3.314,6.629,3.314,11.785H138.96a16.709,16.709,0,0,1,12.886,5.524c3.314,3.683,5.154,8.471,5.154,14.732v4.788ZM13.045,137.959h17.3V87.5h-17.3Zm85.047,5.524,47.126-14.363c-.736-2.21-1.841-4.051-2.945-4.788a7.1,7.1,0,0,0-3.682-1.1H100.67a90.476,90.476,0,0,1-10.309-.737,53.108,53.108,0,0,1-8.836-1.841l-15.1-4.42,4.05-10.68,13.254,4.42a25.3,25.3,0,0,0,8.836,1.841,102.923,102.923,0,0,0,13.254.737,18.492,18.492,0,0,0-.736-4.42,4,4,0,0,0-2.945-2.946L57.226,87.5H41.762V126.91Z" transform="translate(-2 -3.9)" fill="#5a8fff"/>
</svg>
