<svg xmlns="http://www.w3.org/2000/svg" width="150" height="150" viewBox="0 0 150 150">
  <g id="tutorial_album" transform="translate(-4 -4)">
    <path id="패스_9" data-name="패스 9" d="M53.5,98.125h73.125L103,66.25,83.875,91.75l-12.75-16.5ZM37.75,131.5a10.793,10.793,0,0,1-7.875-3.375A10.793,10.793,0,0,1,26.5,120.25v-105a10.793,10.793,0,0,1,3.375-7.875A10.793,10.793,0,0,1,37.75,4h105a10.793,10.793,0,0,1,7.875,3.375A10.793,10.793,0,0,1,154,15.25v105a11.535,11.535,0,0,1-11.25,11.25Zm0-11.25h105v-105h-105ZM15.25,154a10.793,10.793,0,0,1-7.875-3.375A10.793,10.793,0,0,1,4,142.75V26.5H15.25V142.75H131.5V154ZM37.75,15.25v0Z" transform="translate(0 0)" fill="#5a8fff"/>
    <path id="패스_10" data-name="패스 10" d="M12,10" fill="#fff" stroke="#000" stroke-width="1"/>
  </g>
</svg>
